# xmcd CD database file
# Copyright (C) 1993-1998 Ti Kan
#
# Track frame offsets:
#	182
#	11190
#	22705
#	35090
#	48417
#	63795
#	73750
#	86477
#	100330
#	109935
#	121375
#	132712
#	145092
#	156905
#	167295
#	178267
#	189375
#
# Disc length: 2690 seconds
#
# Revision: 1
# Processed by: cddbd v1.4b41PL1 Copyright (c) Steve Scherf et al.
# Submitted via: CDValet v3.31 - Copyright (c) 1997 Greg Leichner
#
DISCID=ea0a8011
DTITLE=Bo Diddley - 16 Greatest hits
DYEAR=1900
DGENRE=
TTITLE0=Bo Diddley
TTITLE1=Pretty thing
TTITLE2=I'm a man
TTITLE3=You can't judge a book by looking at the cover
TTITLE4=Cops and robbers
TTITLE5=Bring it to Jerome
TTITLE6=Story of Bo Diddley
TTITLE7=Before you accuse me
TTITLE8=Hey Bo Diddley
TTITLE9=I'm looking for a woman
TTITLE10=Say bossman
TTITLE11=Hush your mouth
TTITLE12=Live my life
TTITLE13=Mona
TTITLE14=Diddley daddy
TTITLE15=Who do you love
TTITLE16=Road runner
EXTD=
EXTT0=
EXTT1=
EXTT2=
EXTT3=
EXTT4=
EXTT5=
EXTT6=
EXTT7=
EXTT8=
EXTT9=
EXTT10=
EXTT11=
EXTT12=
EXTT13=
EXTT14=
EXTT15=
EXTT16=
PLAYORDER=
